# xmcd
#
# Track frame offsets:
#	150
#	19655
#	37107
#	52956
#	67037
#	84244
#	98563
#	116264
#	129865
#	142245
#	162650
#	181179
#
# Disc length: 2661
#
# Revision: 1
# Processed by: cddbd v1.5.1PL0 Copyright (c) Steve Scherf et al.
# Submitted via: ExactAudioCopy v0.95a4
# Normalized: r0:TRMNUM
#
DISCID=9a0a630c
DTITLE=黑鸭子演唱组 - 流行的经典
DYEAR=2003
DGENRE=
TTITLE0=垄上行
TTITLE1=爱在深秋
TTITLE2=大约在冬季
TTITLE3=走过咖啡屋
TTITLE4=再回首
TTITLE5=万水千山总是情
TTITLE6=一剪梅
TTITLE7=踏浪
TTITLE8=原野牧歌
TTITLE9=你看你看月亮的脸
TTITLE10=冬季到台北来看雨
TTITLE11=羞答答的玫瑰静悄悄的开
EXTD=
EXTT0=
EXTT1=
EXTT2=
EXTT3=
EXTT4=
EXTT5=
EXTT6=
EXTT7=
EXTT8=
EXTT9=
EXTT10=
EXTT11=
PLAYORDER=
